<?xml version="1.0" encoding="UTF-8" standalone="no"?>
<!DOCTYPE svg PUBLIC "-//W3C//DTD SVG 1.1//EN"
 "http://www.w3.org/Graphics/SVG/1.1/DTD/svg11.dtd">
<!-- Generated by graphviz version 2.36.0 (20140111.2315)
 -->
<!-- Title: controllers_diagram Pages: 1 -->
<svg width="477pt" height="525pt"
 viewBox="0.00 0.00 477.00 525.00" xmlns="http://www.w3.org/2000/svg" xmlns:xlink="http://www.w3.org/1999/xlink">
<g id="graph0" class="graph" transform="scale(1 1) rotate(0) translate(4 521)">
<title>controllers_diagram</title>
<polygon fill="white" stroke="none" points="-4,4 -4,-521 473,-521 473,4 -4,4"/>
<!-- _diagram_info -->
<g id="node1" class="node"><title>_diagram_info</title>
<text text-anchor="start" x="263" y="-352.6" font-family="Times,serif" font-size="13.00">Controllers diagram</text>
<text text-anchor="start" x="263" y="-338.6" font-family="Times,serif" font-size="13.00">Date: Feb 18 2015 &#45; 14:24</text>
<text text-anchor="start" x="263" y="-324.6" font-family="Times,serif" font-size="13.00">Migration version: 20150217121801</text>
<text text-anchor="start" x="263" y="-310.6" font-family="Times,serif" font-size="13.00">Generated by RailRoady 1.3.0</text>
<text text-anchor="start" x="263" y="-296.6" font-family="Times,serif" font-size="13.00">http://railroady.prestonlee.com</text>
</g>
<!-- MessagesController -->
<g id="node2" class="node"><title>MessagesController</title>
<path fill="none" stroke="black" d="M182,-408.5C182,-408.5 283,-408.5 283,-408.5 289,-408.5 295,-414.5 295,-420.5 295,-420.5 295,-504.5 295,-504.5 295,-510.5 289,-516.5 283,-516.5 283,-516.5 182,-516.5 182,-516.5 176,-516.5 170,-510.5 170,-504.5 170,-504.5 170,-420.5 170,-420.5 170,-414.5 176,-408.5 182,-408.5"/>
<text text-anchor="middle" x="232.5" y="-501.3" font-family="Times,serif" font-size="14.00">MessagesController</text>
<polyline fill="none" stroke="black" points="170,-493.5 295,-493.5 "/>
<text text-anchor="start" x="178" y="-478.3" font-family="Times,serif" font-size="14.00">create</text>
<polyline fill="none" stroke="black" points="170,-470.5 295,-470.5 "/>
<polyline fill="none" stroke="black" points="170,-446.5 295,-446.5 "/>
<text text-anchor="start" x="178" y="-431.3" font-family="Times,serif" font-size="14.00">_layout</text>
<text text-anchor="start" x="178" y="-416.3" font-family="Times,serif" font-size="14.00">message_params</text>
</g>
<!-- FeedbacksController -->
<g id="node3" class="node"><title>FeedbacksController</title>
<path fill="none" stroke="black" d="M12,-408.5C12,-408.5 117,-408.5 117,-408.5 123,-408.5 129,-414.5 129,-420.5 129,-420.5 129,-504.5 129,-504.5 129,-510.5 123,-516.5 117,-516.5 117,-516.5 12,-516.5 12,-516.5 6,-516.5 0,-510.5 0,-504.5 0,-504.5 0,-420.5 0,-420.5 0,-414.5 6,-408.5 12,-408.5"/>
<text text-anchor="middle" x="64.5" y="-501.3" font-family="Times,serif" font-size="14.00">FeedbacksController</text>
<polyline fill="none" stroke="black" points="0,-493.5 129,-493.5 "/>
<text text-anchor="start" x="8" y="-478.3" font-family="Times,serif" font-size="14.00">create</text>
<polyline fill="none" stroke="black" points="0,-470.5 129,-470.5 "/>
<polyline fill="none" stroke="black" points="0,-446.5 129,-446.5 "/>
<text text-anchor="start" x="8" y="-431.3" font-family="Times,serif" font-size="14.00">_layout</text>
<text text-anchor="start" x="8" y="-416.3" font-family="Times,serif" font-size="14.00">feedback_params</text>
</g>
<!-- CommentsController -->
<g id="node4" class="node"><title>CommentsController</title>
<path fill="none" stroke="black" d="M267,-0.5C267,-0.5 375,-0.5 375,-0.5 381,-0.5 387,-6.5 387,-12.5 387,-12.5 387,-96.5 387,-96.5 387,-102.5 381,-108.5 375,-108.5 375,-108.5 267,-108.5 267,-108.5 261,-108.5 255,-102.5 255,-96.5 255,-96.5 255,-12.5 255,-12.5 255,-6.5 261,-0.5 267,-0.5"/>
<text text-anchor="middle" x="321" y="-93.3" font-family="Times,serif" font-size="14.00">CommentsController</text>
<polyline fill="none" stroke="black" points="255,-85.5 387,-85.5 "/>
<text text-anchor="start" x="263" y="-70.3" font-family="Times,serif" font-size="14.00">create</text>
<polyline fill="none" stroke="black" points="255,-62.5 387,-62.5 "/>
<polyline fill="none" stroke="black" points="255,-38.5 387,-38.5 "/>
<text text-anchor="start" x="263" y="-23.3" font-family="Times,serif" font-size="14.00">_layout</text>
<text text-anchor="start" x="263" y="-8.3" font-family="Times,serif" font-size="14.00">comment_params</text>
</g>
<!-- TasksController -->
<g id="node5" class="node"><title>TasksController</title>
<path fill="none" stroke="black" d="M80,-85.5C80,-85.5 217,-85.5 217,-85.5 223,-85.5 229,-91.5 229,-97.5 229,-97.5 229,-361.5 229,-361.5 229,-367.5 223,-373.5 217,-373.5 217,-373.5 80,-373.5 80,-373.5 74,-373.5 68,-367.5 68,-361.5 68,-361.5 68,-97.5 68,-97.5 68,-91.5 74,-85.5 80,-85.5"/>
<text text-anchor="middle" x="148.5" y="-358.3" font-family="Times,serif" font-size="14.00">TasksController</text>
<polyline fill="none" stroke="black" points="68,-350.5 229,-350.5 "/>
<text text-anchor="start" x="76" y="-335.3" font-family="Times,serif" font-size="14.00">accept_task</text>
<text text-anchor="start" x="76" y="-320.3" font-family="Times,serif" font-size="14.00">create</text>
<text text-anchor="start" x="76" y="-305.3" font-family="Times,serif" font-size="14.00">destroy</text>
<text text-anchor="start" x="76" y="-290.3" font-family="Times,serif" font-size="14.00">download_file</text>
<text text-anchor="start" x="76" y="-275.3" font-family="Times,serif" font-size="14.00">edit</text>
<text text-anchor="start" x="76" y="-260.3" font-family="Times,serif" font-size="14.00">index</text>
<text text-anchor="start" x="76" y="-245.3" font-family="Times,serif" font-size="14.00">new</text>
<text text-anchor="start" x="76" y="-230.3" font-family="Times,serif" font-size="14.00">show</text>
<text text-anchor="start" x="76" y="-215.3" font-family="Times,serif" font-size="14.00">update</text>
<polyline fill="none" stroke="black" points="68,-207.5 229,-207.5 "/>
<polyline fill="none" stroke="black" points="68,-183.5 229,-183.5 "/>
<text text-anchor="start" x="76" y="-168.3" font-family="Times,serif" font-size="14.00">_layout</text>
<text text-anchor="start" x="76" y="-153.3" font-family="Times,serif" font-size="14.00">check_if_buyer_logged_in</text>
<text text-anchor="start" x="76" y="-138.3" font-family="Times,serif" font-size="14.00">check_if_task_present</text>
<text text-anchor="start" x="76" y="-123.3" font-family="Times,serif" font-size="14.00">correct_seller</text>
<text text-anchor="start" x="76" y="-108.3" font-family="Times,serif" font-size="14.00">set_task</text>
<text text-anchor="start" x="76" y="-93.3" font-family="Times,serif" font-size="14.00">task_params</text>
</g>
<!-- ApplicationController -->
<g id="node6" class="node"><title>ApplicationController</title>
<path fill="none" stroke="black" d="M335,-408.5C335,-408.5 457,-408.5 457,-408.5 463,-408.5 469,-414.5 469,-420.5 469,-420.5 469,-504.5 469,-504.5 469,-510.5 463,-516.5 457,-516.5 457,-516.5 335,-516.5 335,-516.5 329,-516.5 323,-510.5 323,-504.5 323,-504.5 323,-420.5 323,-420.5 323,-414.5 329,-408.5 335,-408.5"/>
<text text-anchor="middle" x="396" y="-501.3" font-family="Times,serif" font-size="14.00">ApplicationController</text>
<polyline fill="none" stroke="black" points="323,-493.5 469,-493.5 "/>
<text text-anchor="start" x="331" y="-478.3" font-family="Times,serif" font-size="14.00">current_buyer_or_seller</text>
<text text-anchor="start" x="331" y="-463.3" font-family="Times,serif" font-size="14.00">validate_task</text>
<polyline fill="none" stroke="black" points="323,-455.5 469,-455.5 "/>
<polyline fill="none" stroke="black" points="323,-431.5 469,-431.5 "/>
<text text-anchor="start" x="331" y="-416.3" font-family="Times,serif" font-size="14.00">_layout</text>
</g>
<!-- Sellers::RegistrationsController -->
<g id="node7" class="node"><title>Sellers::RegistrationsController</title>
<path fill="none" stroke="black" d="M267,-136.5C267,-136.5 431,-136.5 431,-136.5 437,-136.5 443,-142.5 443,-148.5 443,-148.5 443,-247.5 443,-247.5 443,-253.5 437,-259.5 431,-259.5 431,-259.5 267,-259.5 267,-259.5 261,-259.5 255,-253.5 255,-247.5 255,-247.5 255,-148.5 255,-148.5 255,-142.5 261,-136.5 267,-136.5"/>
<text text-anchor="middle" x="349" y="-244.3" font-family="Times,serif" font-size="14.00">Sellers::RegistrationsController</text>
<polyline fill="none" stroke="black" points="255,-236.5 443,-236.5 "/>
<text text-anchor="start" x="263" y="-221.3" font-family="Times,serif" font-size="14.00">create</text>
<text text-anchor="start" x="263" y="-206.3" font-family="Times,serif" font-size="14.00">new</text>
<polyline fill="none" stroke="black" points="255,-198.5 443,-198.5 "/>
<polyline fill="none" stroke="black" points="255,-174.5 443,-174.5 "/>
<text text-anchor="start" x="263" y="-159.3" font-family="Times,serif" font-size="14.00">_layout</text>
<text text-anchor="start" x="263" y="-144.3" font-family="Times,serif" font-size="14.00">seller_params</text>
</g>
</g>
</svg>
