<?xml version="1.0" encoding="UTF-8" standalone="no"?>
<!DOCTYPE svg PUBLIC "-//W3C//DTD SVG 1.1//EN"
 "http://www.w3.org/Graphics/SVG/1.1/DTD/svg11.dtd">
<!-- Generated by graphviz version 2.36.0 (20140111.2315)
 -->
<!-- Title: models_diagram Pages: 1 -->
<svg width="684pt" height="302pt"
 viewBox="0.00 0.00 684.00 302.00" xmlns="http://www.w3.org/2000/svg" xmlns:xlink="http://www.w3.org/1999/xlink">
<g id="graph0" class="graph" transform="scale(1 1) rotate(0) translate(4 298)">
<title>models_diagram</title>
<polygon fill="white" stroke="none" points="-4,4 -4,-298 680,-298 680,4 -4,4"/>
<!-- _diagram_info -->
<g id="node1" class="node"><title>_diagram_info</title>
<text text-anchor="start" x="8" y="-279.6" font-family="Times,serif" font-size="13.00">Models diagram</text>
<text text-anchor="start" x="8" y="-265.6" font-family="Times,serif" font-size="13.00">Date: Feb 18 2015 &#45; 14:24</text>
<text text-anchor="start" x="8" y="-251.6" font-family="Times,serif" font-size="13.00">Migration version: 20150217121801</text>
<text text-anchor="start" x="8" y="-237.6" font-family="Times,serif" font-size="13.00">Generated by RailRoady 1.3.0</text>
<text text-anchor="start" x="8" y="-223.6" font-family="Times,serif" font-size="13.00">http://railroady.prestonlee.com</text>
</g>
<!-- Category -->
<g id="node2" class="node"><title>Category</title>
<ellipse fill="none" stroke="black" cx="275" cy="-255" rx="42.3456" ry="18"/>
<text text-anchor="middle" x="275" y="-251.3" font-family="Times,serif" font-size="14.00">Category</text>
</g>
<!-- Seller -->
<g id="node4" class="node"><title>Seller</title>
<ellipse fill="none" stroke="black" cx="160" cy="-90" rx="31.2965" ry="18"/>
<text text-anchor="middle" x="160" y="-86.3" font-family="Times,serif" font-size="14.00">Seller</text>
</g>
<!-- Category&#45;&gt;Seller -->
<g id="edge2" class="edge"><title>Category&#45;&gt;Seller</title>
<path fill="none" stroke="#394110" d="M258.601,-230.756C237.061,-200.225 199.4,-146.845 177.382,-115.637"/>
<ellipse fill="none" stroke="#394110" cx="261.034" cy="-234.205" rx="4.00002" ry="4.00002"/>
<polygon fill="#394110" stroke="#394110" points="177.115,-115.258 175.027,-104.493 174.232,-111.172 171.35,-107.087 171.35,-107.087 171.35,-107.087 174.232,-111.172 167.673,-109.681 177.115,-115.258 177.115,-115.258"/>
</g>
<!-- Task -->
<g id="node7" class="node"><title>Task</title>
<ellipse fill="none" stroke="black" cx="343" cy="-162" rx="27.4223" ry="18"/>
<text text-anchor="middle" x="343" y="-158.3" font-family="Times,serif" font-size="14.00">Task</text>
</g>
<!-- Category&#45;&gt;Task -->
<g id="edge1" class="edge"><title>Category&#45;&gt;Task</title>
<path fill="none" stroke="#86ddde" d="M292.15,-231.049C302.315,-217.446 315.17,-200.244 325.411,-186.539"/>
<ellipse fill="none" stroke="#86ddde" cx="289.551" cy="-234.527" rx="4.00002" ry="4.00002"/>
<polygon fill="#86ddde" stroke="#86ddde" points="325.416,-186.531 335.007,-181.214 328.409,-182.526 331.402,-178.521 331.402,-178.521 331.402,-178.521 328.409,-182.526 327.797,-175.827 325.416,-186.531 325.416,-186.531"/>
</g>
<!-- Message -->
<g id="node3" class="node"><title>Message</title>
<ellipse fill="none" stroke="black" cx="473" cy="-18" rx="42.3701" ry="18"/>
<text text-anchor="middle" x="473" y="-14.3" font-family="Times,serif" font-size="14.00">Message</text>
</g>
<!-- Seller&#45;&gt;Message -->
<g id="edge4" class="edge"><title>Seller&#45;&gt;Message</title>
<path fill="none" stroke="#f7cbda" d="M190.837,-75.0315C193.898,-73.9067 196.987,-72.8707 200,-72 296.026,-44.2503 324.939,-59.8817 422,-36 425.365,-35.1722 428.826,-34.2269 432.285,-33.2157"/>
<ellipse fill="none" stroke="#f7cbda" cx="187.07" cy="-76.5073" rx="4.00001" ry="4.00001"/>
<polygon fill="#f7cbda" stroke="#f7cbda" points="432.391,-33.1831 443.273,-34.5339 437.168,-31.7085 441.946,-30.234 441.946,-30.234 441.946,-30.234 437.168,-31.7085 440.619,-25.9341 432.391,-33.1831 432.391,-33.1831"/>
</g>
<!-- Comment -->
<g id="node5" class="node"><title>Comment</title>
<ellipse fill="none" stroke="black" cx="367" cy="-18" rx="46.2191" ry="18"/>
<text text-anchor="middle" x="367" y="-14.3" font-family="Times,serif" font-size="14.00">Comment</text>
</g>
<!-- Seller&#45;&gt;Comment -->
<g id="edge3" class="edge"><title>Seller&#45;&gt;Comment</title>
<path fill="none" stroke="#c1bd39" d="M191.481,-75.2933C194.347,-74.1445 197.218,-73.0299 200,-72 240.502,-57.0045 287.448,-42.3394 321.231,-32.2511"/>
<ellipse fill="none" stroke="#c1bd39" cx="187.666" cy="-76.8602" rx="4.00002" ry="4.00002"/>
<polygon fill="#c1bd39" stroke="#c1bd39" points="321.245,-32.2469 332.112,-33.7154 326.039,-30.8242 330.832,-29.4014 330.832,-29.4014 330.832,-29.4014 326.039,-30.8242 329.552,-25.0874 321.245,-32.2469 321.245,-32.2469"/>
</g>
<!-- SellersTask -->
<g id="node11" class="node"><title>SellersTask</title>
<ellipse fill="none" stroke="black" cx="101" cy="-18" rx="51.4931" ry="18"/>
<text text-anchor="middle" x="101" y="-14.3" font-family="Times,serif" font-size="14.00">SellersTask</text>
</g>
<!-- Seller&#45;&gt;SellersTask -->
<g id="edge5" class="edge"><title>Seller&#45;&gt;SellersTask</title>
<path fill="none" stroke="#cbc45a" d="M141.742,-67.3382C135.381,-59.7913 128.2,-51.2713 121.658,-43.5097"/>
<ellipse fill="none" stroke="#cbc45a" cx="144.328" cy="-70.4062" rx="4.00002" ry="4.00002"/>
<polygon fill="#cbc45a" stroke="#cbc45a" points="121.324,-43.1135 118.32,-32.567 118.102,-39.2903 114.879,-35.4672 114.879,-35.4672 114.879,-35.4672 118.102,-39.2903 111.439,-38.3673 121.324,-43.1135 121.324,-43.1135"/>
</g>
<!-- AcceptedTask -->
<g id="node12" class="node"><title>AcceptedTask</title>
<ellipse fill="none" stroke="black" cx="232" cy="-18" rx="61.1419" ry="18"/>
<text text-anchor="middle" x="232" y="-14.3" font-family="Times,serif" font-size="14.00">AcceptedTask</text>
</g>
<!-- Seller&#45;&gt;AcceptedTask -->
<g id="edge6" class="edge"><title>Seller&#45;&gt;AcceptedTask</title>
<path fill="none" stroke="#bf4a9c" d="M182.53,-67.096C190.561,-59.2882 199.637,-50.4644 207.802,-42.526"/>
<polygon fill="#bf4a9c" stroke="#bf4a9c" points="182.439,-67.184 172.132,-70.9283 178.854,-70.6694 175.269,-74.1548 175.269,-74.1548 175.269,-74.1548 178.854,-70.6694 178.406,-77.3813 182.439,-67.184 182.439,-67.184"/>
<polygon fill="#bf4a9c" stroke="#bf4a9c" points="207.818,-42.51 218.125,-38.7656 211.403,-39.0246 214.988,-35.5391 214.988,-35.5391 214.988,-35.5391 211.403,-39.0246 211.851,-32.3127 207.818,-42.51 207.818,-42.51"/>
</g>
<!-- TaskAttachment -->
<g id="node6" class="node"><title>TaskAttachment</title>
<ellipse fill="none" stroke="black" cx="279" cy="-90" rx="69.3156" ry="18"/>
<text text-anchor="middle" x="279" y="-86.3" font-family="Times,serif" font-size="14.00">TaskAttachment</text>
</g>
<!-- Task&#45;&gt;Message -->
<g id="edge11" class="edge"><title>Task&#45;&gt;Message</title>
<path fill="none" stroke="#521d00" d="M362.247,-139.977C386.09,-113.933 426.597,-69.6865 451.456,-42.5327"/>
<ellipse fill="none" stroke="#521d00" cx="359.368" cy="-143.122" rx="4.00002" ry="4.00002"/>
<polygon fill="#521d00" stroke="#521d00" points="451.577,-42.4009 461.648,-38.0637 454.953,-38.7129 458.329,-35.025 458.329,-35.025 458.329,-35.025 454.953,-38.7129 455.01,-31.9863 451.577,-42.4009 451.577,-42.4009"/>
</g>
<!-- Task&#45;&gt;Seller -->
<g id="edge8" class="edge"><title>Task&#45;&gt;Seller</title>
<path fill="none" stroke="#e174a3" d="M309.673,-149.149C280.583,-138.686 237.305,-122.831 200,-108 197.811,-107.13 195.561,-106.219 193.298,-105.29"/>
<polygon fill="#e174a3" stroke="#e174a3" points="309.925,-149.239 317.819,-156.851 314.631,-150.927 319.338,-152.615 319.338,-152.615 319.338,-152.615 314.631,-150.927 320.857,-148.379 309.925,-149.239 309.925,-149.239"/>
<polygon fill="#e174a3" stroke="#e174a3" points="193.268,-105.278 185.769,-97.2781 188.653,-103.355 184.038,-101.432 184.038,-101.432 184.038,-101.432 188.653,-103.355 182.307,-105.586 193.268,-105.278 193.268,-105.278"/>
</g>
<!-- Task&#45;&gt;Comment -->
<g id="edge9" class="edge"><title>Task&#45;&gt;Comment</title>
<path fill="none" stroke="#2e2fc5" d="M350.343,-136.239C352.753,-127.393 355.257,-117.311 357,-108 360.838,-87.4968 363.4,-64.0412 364.969,-46.3583"/>
<ellipse fill="none" stroke="#2e2fc5" cx="349.26" cy="-140.107" rx="4.00001" ry="4.00001"/>
<polygon fill="#2e2fc5" stroke="#2e2fc5" points="364.987,-46.1374 370.305,-36.5469 365.404,-41.1548 365.82,-36.1722 365.82,-36.1722 365.82,-36.1722 365.404,-41.1548 361.336,-35.7974 364.987,-46.1374 364.987,-46.1374"/>
</g>
<!-- Task&#45;&gt;TaskAttachment -->
<g id="edge12" class="edge"><title>Task&#45;&gt;TaskAttachment</title>
<path fill="none" stroke="#839555" d="M323.826,-140.028C316.758,-132.297 308.689,-123.472 301.363,-115.46"/>
<ellipse fill="none" stroke="#839555" cx="326.728" cy="-143.203" rx="4.00002" ry="4.00002"/>
<polygon fill="#839555" stroke="#839555" points="301.098,-115.169 297.671,-104.753 297.724,-111.479 294.35,-107.789 294.35,-107.789 294.35,-107.789 297.724,-111.479 291.029,-110.825 301.098,-115.169 301.098,-115.169"/>
</g>
<!-- Feedback -->
<g id="node8" class="node"><title>Feedback</title>
<ellipse fill="none" stroke="black" cx="487" cy="-90" rx="44.2946" ry="18"/>
<text text-anchor="middle" x="487" y="-86.3" font-family="Times,serif" font-size="14.00">Feedback</text>
</g>
<!-- Task&#45;&gt;Feedback -->
<g id="edge10" class="edge"><title>Task&#45;&gt;Feedback</title>
<path fill="none" stroke="#7defd6" d="M371.772,-147.014C394.351,-136.038 425.936,-120.684 450.328,-108.826"/>
<ellipse fill="none" stroke="#7defd6" cx="368.156" cy="-148.771" rx="4.00002" ry="4.00002"/>
<polygon fill="#7defd6" stroke="#7defd6" points="450.63,-108.68 461.592,-108.355 455.127,-106.494 459.624,-104.308 459.624,-104.308 459.624,-104.308 455.127,-106.494 457.657,-100.261 450.63,-108.68 450.63,-108.68"/>
</g>
<!-- Task&#45;&gt;SellersTask -->
<g id="edge7" class="edge"><title>Task&#45;&gt;SellersTask</title>
<path fill="none" stroke="#b5bff1" d="M307.859,-157.211C251.813,-150.445 145.859,-134.462 120,-108 104.254,-91.8872 100.154,-66.1114 99.6121,-46.4365"/>
<ellipse fill="none" stroke="#b5bff1" cx="312.105" cy="-157.712" rx="4.00001" ry="4.00001"/>
<polygon fill="#b5bff1" stroke="#b5bff1" points="99.6123,-46.2337 104.126,-36.2397 99.6189,-41.2337 99.6256,-36.2337 99.6256,-36.2337 99.6256,-36.2337 99.6189,-41.2337 95.1256,-36.2278 99.6123,-46.2337 99.6123,-46.2337"/>
</g>
<!-- Buyer -->
<g id="node9" class="node"><title>Buyer</title>
<ellipse fill="none" stroke="black" cx="523" cy="-255" rx="32.2457" ry="18"/>
<text text-anchor="middle" x="523" y="-251.3" font-family="Times,serif" font-size="14.00">Buyer</text>
</g>
<!-- Buyer&#45;&gt;Message -->
<g id="edge16" class="edge"><title>Buyer&#45;&gt;Message</title>
<path fill="none" stroke="#f247d2" d="M542.744,-232.345C554.004,-218.484 567.032,-199.493 573,-180 587.052,-134.103 597.749,-113.128 573,-72 561.018,-52.0887 538.764,-39.263 518.286,-31.2257"/>
<ellipse fill="none" stroke="#f247d2" cx="539.967" cy="-235.654" rx="4.00002" ry="4.00002"/>
<polygon fill="#f247d2" stroke="#f247d2" points="518.137,-31.1719 510.274,-23.5286 513.438,-29.4651 508.738,-27.7583 508.738,-27.7583 508.738,-27.7583 513.438,-29.4651 507.202,-31.988 518.137,-31.1719 518.137,-31.1719"/>
</g>
<!-- Buyer&#45;&gt;Comment -->
<g id="edge14" class="edge"><title>Buyer&#45;&gt;Comment</title>
<path fill="none" stroke="#444c0d" d="M534.545,-229.995C550.784,-192.353 574.731,-118.908 540,-72 507.372,-27.9335 474.415,-52.096 422,-36 418.65,-34.9713 415.186,-33.9055 411.702,-32.832"/>
<ellipse fill="none" stroke="#444c0d" cx="532.848" cy="-233.807" rx="4.00002" ry="4.00002"/>
<polygon fill="#444c0d" stroke="#444c0d" points="411.464,-32.7587 403.235,-25.5109 406.686,-31.2849 401.909,-29.811 401.909,-29.811 401.909,-29.811 406.686,-31.2849 400.582,-34.111 411.464,-32.7587 411.464,-32.7587"/>
</g>
<!-- Buyer&#45;&gt;Task -->
<g id="edge13" class="edge"><title>Buyer&#45;&gt;Task</title>
<path fill="none" stroke="#e2e1c7" d="M492.423,-238.542C459.198,-221.744 406.437,-195.071 373.314,-178.326"/>
<ellipse fill="none" stroke="#e2e1c7" cx="496.267" cy="-240.485" rx="4.00002" ry="4.00002"/>
<polygon fill="#e2e1c7" stroke="#e2e1c7" points="373.042,-178.188 366.148,-169.66 368.58,-175.932 364.117,-173.676 364.117,-173.676 364.117,-173.676 368.58,-175.932 362.087,-177.692 373.042,-178.188 373.042,-178.188"/>
</g>
<!-- Buyer&#45;&gt;Feedback -->
<g id="edge15" class="edge"><title>Buyer&#45;&gt;Feedback</title>
<path fill="none" stroke="#257ca0" d="M517.466,-228.945C510.872,-199.085 499.889,-149.36 493.068,-118.473"/>
<ellipse fill="none" stroke="#257ca0" cx="518.353" cy="-232.958" rx="4.00001" ry="4.00001"/>
<polygon fill="#257ca0" stroke="#257ca0" points="492.999,-118.161 495.236,-107.426 491.921,-113.279 490.842,-108.397 490.842,-108.397 490.842,-108.397 491.921,-113.279 486.448,-109.367 492.999,-118.161 492.999,-118.161"/>
</g>
<!-- AdminUser -->
<g id="node10" class="node"><title>AdminUser</title>
<ellipse fill="none" stroke="black" cx="625" cy="-255" rx="51.4931" ry="18"/>
<text text-anchor="middle" x="625" y="-251.3" font-family="Times,serif" font-size="14.00">AdminUser</text>
</g>
</g>
</svg>
