<?xml version="1.0" encoding="UTF-8" standalone="no"?>
<!DOCTYPE svg PUBLIC "-//W3C//DTD SVG 1.1//EN"
 "http://www.w3.org/Graphics/SVG/1.1/DTD/svg11.dtd">
<!-- Generated by graphviz version 2.36.0 (20140111.2315)
 -->
<!-- Title: models_diagram Pages: 1 -->
<svg width="1011pt" height="1026pt"
 viewBox="0.00 0.00 1011.00 1026.00" xmlns="http://www.w3.org/2000/svg" xmlns:xlink="http://www.w3.org/1999/xlink">
<g id="graph0" class="graph" transform="scale(1 1) rotate(0) translate(4 1022)">
<title>models_diagram</title>
<polygon fill="white" stroke="none" points="-4,4 -4,-1022 1007,-1022 1007,4 -4,4"/>
<!-- _diagram_info -->
<g id="node1" class="node"><title>_diagram_info</title>
<text text-anchor="start" x="48" y="-913.6" font-family="Times,serif" font-size="13.00">Models diagram</text>
<text text-anchor="start" x="48" y="-899.6" font-family="Times,serif" font-size="13.00">Date: Feb 18 2015 &#45; 14:24</text>
<text text-anchor="start" x="48" y="-885.6" font-family="Times,serif" font-size="13.00">Migration version: 20150217121801</text>
<text text-anchor="start" x="48" y="-871.6" font-family="Times,serif" font-size="13.00">Generated by RailRoady 1.3.0</text>
<text text-anchor="start" x="48" y="-857.6" font-family="Times,serif" font-size="13.00">http://railroady.prestonlee.com</text>
</g>
<!-- Category -->
<g id="node2" class="node"><title>Category</title>
<path fill="none" stroke="black" d="M284.5,-843.5C284.5,-843.5 391.5,-843.5 391.5,-843.5 397.5,-843.5 403.5,-849.5 403.5,-855.5 403.5,-855.5 403.5,-922.5 403.5,-922.5 403.5,-928.5 397.5,-934.5 391.5,-934.5 391.5,-934.5 284.5,-934.5 284.5,-934.5 278.5,-934.5 272.5,-928.5 272.5,-922.5 272.5,-922.5 272.5,-855.5 272.5,-855.5 272.5,-849.5 278.5,-843.5 284.5,-843.5"/>
<text text-anchor="middle" x="338" y="-919.3" font-family="Times,serif" font-size="14.00">Category</text>
<polyline fill="none" stroke="black" points="272.5,-911.5 403.5,-911.5 "/>
<text text-anchor="start" x="280.5" y="-896.3" font-family="Times,serif" font-size="14.00">id :integer</text>
<text text-anchor="start" x="280.5" y="-881.3" font-family="Times,serif" font-size="14.00">name :string</text>
<text text-anchor="start" x="280.5" y="-866.3" font-family="Times,serif" font-size="14.00">created_at :datetime</text>
<text text-anchor="start" x="280.5" y="-851.3" font-family="Times,serif" font-size="14.00">updated_at :datetime</text>
</g>
<!-- Seller -->
<g id="node4" class="node"><title>Seller</title>
<path fill="none" stroke="black" d="M106,-174.5C106,-174.5 282,-174.5 282,-174.5 288,-174.5 294,-180.5 294,-186.5 294,-186.5 294,-463.5 294,-463.5 294,-469.5 288,-475.5 282,-475.5 282,-475.5 106,-475.5 106,-475.5 100,-475.5 94,-469.5 94,-463.5 94,-463.5 94,-186.5 94,-186.5 94,-180.5 100,-174.5 106,-174.5"/>
<text text-anchor="middle" x="194" y="-460.3" font-family="Times,serif" font-size="14.00">Seller</text>
<polyline fill="none" stroke="black" points="94,-452.5 294,-452.5 "/>
<text text-anchor="start" x="102" y="-437.3" font-family="Times,serif" font-size="14.00">id :integer</text>
<text text-anchor="start" x="102" y="-422.3" font-family="Times,serif" font-size="14.00">email :string</text>
<text text-anchor="start" x="102" y="-407.3" font-family="Times,serif" font-size="14.00">encrypted_password :string</text>
<text text-anchor="start" x="102" y="-392.3" font-family="Times,serif" font-size="14.00">reset_password_token :string</text>
<text text-anchor="start" x="102" y="-377.3" font-family="Times,serif" font-size="14.00">reset_password_sent_at :datetime</text>
<text text-anchor="start" x="102" y="-362.3" font-family="Times,serif" font-size="14.00">remember_created_at :datetime</text>
<text text-anchor="start" x="102" y="-347.3" font-family="Times,serif" font-size="14.00">sign_in_count :integer</text>
<text text-anchor="start" x="102" y="-332.3" font-family="Times,serif" font-size="14.00">current_sign_in_at :datetime</text>
<text text-anchor="start" x="102" y="-317.3" font-family="Times,serif" font-size="14.00">last_sign_in_at :datetime</text>
<text text-anchor="start" x="102" y="-302.3" font-family="Times,serif" font-size="14.00">current_sign_in_ip :string</text>
<text text-anchor="start" x="102" y="-287.3" font-family="Times,serif" font-size="14.00">last_sign_in_ip :string</text>
<text text-anchor="start" x="102" y="-272.3" font-family="Times,serif" font-size="14.00">name :string</text>
<text text-anchor="start" x="102" y="-257.3" font-family="Times,serif" font-size="14.00">about :text</text>
<text text-anchor="start" x="102" y="-242.3" font-family="Times,serif" font-size="14.00">category_id :integer</text>
<text text-anchor="start" x="102" y="-227.3" font-family="Times,serif" font-size="14.00">created_at :datetime</text>
<text text-anchor="start" x="102" y="-212.3" font-family="Times,serif" font-size="14.00">updated_at :datetime</text>
<text text-anchor="start" x="102" y="-197.3" font-family="Times,serif" font-size="14.00">approved :boolean</text>
<text text-anchor="start" x="102" y="-182.3" font-family="Times,serif" font-size="14.00">approved_at :datetime</text>
</g>
<!-- Category&#45;&gt;Seller -->
<g id="edge2" class="edge"><title>Category&#45;&gt;Seller</title>
<path fill="none" stroke="#6809dd" d="M324.503,-835.323C304.21,-756.124 265.006,-603.12 234.842,-485.397"/>
<ellipse fill="none" stroke="#6809dd" cx="325.587" cy="-839.556" rx="4.00001" ry="4.00001"/>
<polygon fill="#6809dd" stroke="#6809dd" points="234.802,-485.241 236.679,-474.437 233.561,-480.398 232.32,-475.554 232.32,-475.554 232.32,-475.554 233.561,-480.398 227.961,-476.671 234.802,-485.241 234.802,-485.241"/>
</g>
<!-- Task -->
<g id="node7" class="node"><title>Task</title>
<path fill="none" stroke="black" d="M356,-512.5C356,-512.5 524,-512.5 524,-512.5 530,-512.5 536,-518.5 536,-524.5 536,-524.5 536,-711.5 536,-711.5 536,-717.5 530,-723.5 524,-723.5 524,-723.5 356,-723.5 356,-723.5 350,-723.5 344,-717.5 344,-711.5 344,-711.5 344,-524.5 344,-524.5 344,-518.5 350,-512.5 356,-512.5"/>
<text text-anchor="middle" x="440" y="-708.3" font-family="Times,serif" font-size="14.00">Task</text>
<polyline fill="none" stroke="black" points="344,-700.5 536,-700.5 "/>
<text text-anchor="start" x="352" y="-685.3" font-family="Times,serif" font-size="14.00">id :integer</text>
<text text-anchor="start" x="352" y="-670.3" font-family="Times,serif" font-size="14.00">title :string</text>
<text text-anchor="start" x="352" y="-655.3" font-family="Times,serif" font-size="14.00">description :text</text>
<text text-anchor="start" x="352" y="-640.3" font-family="Times,serif" font-size="14.00">price_in_cents :integer</text>
<text text-anchor="start" x="352" y="-625.3" font-family="Times,serif" font-size="14.00">buyer_id :integer</text>
<text text-anchor="start" x="352" y="-610.3" font-family="Times,serif" font-size="14.00">created_at :datetime</text>
<text text-anchor="start" x="352" y="-595.3" font-family="Times,serif" font-size="14.00">updated_at :datetime</text>
<text text-anchor="start" x="352" y="-580.3" font-family="Times,serif" font-size="14.00">category_id :integer</text>
<text text-anchor="start" x="352" y="-565.3" font-family="Times,serif" font-size="14.00">status :integer</text>
<text text-anchor="start" x="352" y="-550.3" font-family="Times,serif" font-size="14.00">comments_count :integer</text>
<text text-anchor="start" x="352" y="-535.3" font-family="Times,serif" font-size="14.00">task_attachments_count :integer</text>
<text text-anchor="start" x="352" y="-520.3" font-family="Times,serif" font-size="14.00">present_seller_id :integer</text>
</g>
<!-- Category&#45;&gt;Task -->
<g id="edge1" class="edge"><title>Category&#45;&gt;Task</title>
<path fill="none" stroke="#ab9335" d="M357.939,-835.416C369.004,-806.233 383.221,-768.74 396.703,-733.186"/>
<ellipse fill="none" stroke="#ab9335" cx="356.376" cy="-839.538" rx="4.00001" ry="4.00001"/>
<polygon fill="#ab9335" stroke="#ab9335" points="396.751,-733.058 404.504,-725.303 398.524,-728.383 400.297,-723.708 400.297,-723.708 400.297,-723.708 398.524,-728.383 396.089,-722.112 396.751,-733.058 396.751,-733.058"/>
</g>
<!-- Message -->
<g id="node3" class="node"><title>Message</title>
<path fill="none" stroke="black" d="M535,-1C535,-1 659,-1 659,-1 665,-1 671,-7 671,-13 671,-13 671,-125 671,-125 671,-131 665,-137 659,-137 659,-137 535,-137 535,-137 529,-137 523,-131 523,-125 523,-125 523,-13 523,-13 523,-7 529,-1 535,-1"/>
<text text-anchor="middle" x="597" y="-121.8" font-family="Times,serif" font-size="14.00">Message</text>
<polyline fill="none" stroke="black" points="523,-114 671,-114 "/>
<text text-anchor="start" x="531" y="-98.8" font-family="Times,serif" font-size="14.00">id :integer</text>
<text text-anchor="start" x="531" y="-83.8" font-family="Times,serif" font-size="14.00">content :text</text>
<text text-anchor="start" x="531" y="-68.8" font-family="Times,serif" font-size="14.00">created_at :datetime</text>
<text text-anchor="start" x="531" y="-53.8" font-family="Times,serif" font-size="14.00">updated_at :datetime</text>
<text text-anchor="start" x="531" y="-38.8" font-family="Times,serif" font-size="14.00">task_id :integer</text>
<text text-anchor="start" x="531" y="-23.8" font-family="Times,serif" font-size="14.00">messagable_id :integer</text>
<text text-anchor="start" x="531" y="-8.8" font-family="Times,serif" font-size="14.00">messagable_type :string</text>
</g>
<!-- Seller&#45;&gt;Message -->
<g id="edge4" class="edge"><title>Seller&#45;&gt;Message</title>
<path fill="none" stroke="#7d1c54" d="M300.755,-175.423C301.5,-174.942 302.248,-174.467 303,-174 383.427,-124.014 426.735,-177.058 513,-138 513.312,-137.859 513.625,-137.716 513.937,-137.571"/>
<ellipse fill="none" stroke="#7d1c54" cx="297.451" cy="-177.684" rx="4.00002" ry="4.00002"/>
<polygon fill="#7d1c54" stroke="#7d1c54" points="514.004,-137.537 524.958,-137.026 518.463,-135.275 522.922,-133.013 522.922,-133.013 522.922,-133.013 518.463,-135.275 520.886,-129 514.004,-137.537 514.004,-137.537"/>
</g>
<!-- Comment -->
<g id="node5" class="node"><title>Comment</title>
<path fill="none" stroke="black" d="M357.5,-1C357.5,-1 492.5,-1 492.5,-1 498.5,-1 504.5,-7 504.5,-13 504.5,-13 504.5,-125 504.5,-125 504.5,-131 498.5,-137 492.5,-137 492.5,-137 357.5,-137 357.5,-137 351.5,-137 345.5,-131 345.5,-125 345.5,-125 345.5,-13 345.5,-13 345.5,-7 351.5,-1 357.5,-1"/>
<text text-anchor="middle" x="425" y="-121.8" font-family="Times,serif" font-size="14.00">Comment</text>
<polyline fill="none" stroke="black" points="345.5,-114 504.5,-114 "/>
<text text-anchor="start" x="353.5" y="-98.8" font-family="Times,serif" font-size="14.00">id :integer</text>
<text text-anchor="start" x="353.5" y="-83.8" font-family="Times,serif" font-size="14.00">body :text</text>
<text text-anchor="start" x="353.5" y="-68.8" font-family="Times,serif" font-size="14.00">task_id :integer</text>
<text text-anchor="start" x="353.5" y="-53.8" font-family="Times,serif" font-size="14.00">created_at :datetime</text>
<text text-anchor="start" x="353.5" y="-38.8" font-family="Times,serif" font-size="14.00">updated_at :datetime</text>
<text text-anchor="start" x="353.5" y="-23.8" font-family="Times,serif" font-size="14.00">commentable_id :integer</text>
<text text-anchor="start" x="353.5" y="-8.8" font-family="Times,serif" font-size="14.00">commentable_type :string</text>
</g>
<!-- Seller&#45;&gt;Comment -->
<g id="edge3" class="edge"><title>Seller&#45;&gt;Comment</title>
<path fill="none" stroke="#e4b7ac" d="M299.683,-177.622C300.787,-176.404 301.893,-175.196 303,-174 313.723,-162.412 325.684,-150.853 337.808,-139.879"/>
<ellipse fill="none" stroke="#e4b7ac" cx="296.84" cy="-180.809" rx="4.00002" ry="4.00002"/>
<polygon fill="#e4b7ac" stroke="#e4b7ac" points="337.91,-139.788 348.366,-136.483 341.639,-136.457 345.369,-133.127 345.369,-133.127 345.369,-133.127 341.639,-136.457 342.371,-129.77 337.91,-139.788 337.91,-139.788"/>
</g>
<!-- SellersTask -->
<g id="node11" class="node"><title>SellersTask</title>
<path fill="none" stroke="black" d="M12.5,-16C12.5,-16 119.5,-16 119.5,-16 125.5,-16 131.5,-22 131.5,-28 131.5,-28 131.5,-110 131.5,-110 131.5,-116 125.5,-122 119.5,-122 119.5,-122 12.5,-122 12.5,-122 6.5,-122 0.5,-116 0.5,-110 0.5,-110 0.5,-28 0.5,-28 0.5,-22 6.5,-16 12.5,-16"/>
<text text-anchor="middle" x="66" y="-106.8" font-family="Times,serif" font-size="14.00">SellersTask</text>
<polyline fill="none" stroke="black" points="0.5,-99 131.5,-99 "/>
<text text-anchor="start" x="8.5" y="-83.8" font-family="Times,serif" font-size="14.00">id :integer</text>
<text text-anchor="start" x="8.5" y="-68.8" font-family="Times,serif" font-size="14.00">seller_id :integer</text>
<text text-anchor="start" x="8.5" y="-53.8" font-family="Times,serif" font-size="14.00">task_id :integer</text>
<text text-anchor="start" x="8.5" y="-38.8" font-family="Times,serif" font-size="14.00">created_at :datetime</text>
<text text-anchor="start" x="8.5" y="-23.8" font-family="Times,serif" font-size="14.00">updated_at :datetime</text>
</g>
<!-- Seller&#45;&gt;SellersTask -->
<g id="edge5" class="edge"><title>Seller&#45;&gt;SellersTask</title>
<path fill="none" stroke="#475fe7" d="M114.895,-167.027C108.605,-154.545 102.522,-142.473 96.9067,-131.331"/>
<ellipse fill="none" stroke="#475fe7" cx="116.816" cy="-170.839" rx="4.00002" ry="4.00002"/>
<polygon fill="#475fe7" stroke="#475fe7" points="96.8065,-131.132 96.3248,-120.176 94.5564,-126.667 92.3062,-122.201 92.3062,-122.201 92.3062,-122.201 94.5564,-126.667 88.2877,-124.227 96.8065,-131.132 96.8065,-131.132"/>
</g>
<!-- AcceptedTask -->
<g id="node12" class="node"><title>AcceptedTask</title>
<ellipse fill="none" stroke="black" cx="211" cy="-69" rx="61.1419" ry="18"/>
<text text-anchor="middle" x="211" y="-65.3" font-family="Times,serif" font-size="14.00">AcceptedTask</text>
</g>
<!-- Seller&#45;&gt;AcceptedTask -->
<g id="edge6" class="edge"><title>Seller&#45;&gt;AcceptedTask</title>
<path fill="none" stroke="#c12f18" d="M204.699,-164.142C206.42,-138.423 208.013,-114.635 209.166,-97.4054"/>
<polygon fill="#c12f18" stroke="#c12f18" points="204.68,-164.433 199.522,-174.111 204.346,-169.422 204.012,-174.411 204.012,-174.411 204.012,-174.411 204.346,-169.422 208.502,-174.712 204.68,-164.433 204.68,-164.433"/>
<polygon fill="#c12f18" stroke="#c12f18" points="209.189,-97.0532 214.347,-87.3761 209.523,-92.0644 209.857,-87.0755 209.857,-87.0755 209.857,-87.0755 209.523,-92.0644 205.367,-86.775 209.189,-97.0532 209.189,-97.0532"/>
</g>
<!-- TaskAttachment -->
<g id="node6" class="node"><title>TaskAttachment</title>
<path fill="none" stroke="black" d="M324,-272C324,-272 440,-272 440,-272 446,-272 452,-278 452,-284 452,-284 452,-366 452,-366 452,-372 446,-378 440,-378 440,-378 324,-378 324,-378 318,-378 312,-372 312,-366 312,-366 312,-284 312,-284 312,-278 318,-272 324,-272"/>
<text text-anchor="middle" x="382" y="-362.8" font-family="Times,serif" font-size="14.00">TaskAttachment</text>
<polyline fill="none" stroke="black" points="312,-355 452,-355 "/>
<text text-anchor="start" x="320" y="-339.8" font-family="Times,serif" font-size="14.00">id :integer</text>
<text text-anchor="start" x="320" y="-324.8" font-family="Times,serif" font-size="14.00">attachment_file :string</text>
<text text-anchor="start" x="320" y="-309.8" font-family="Times,serif" font-size="14.00">task_id :integer</text>
<text text-anchor="start" x="320" y="-294.8" font-family="Times,serif" font-size="14.00">created_at :datetime</text>
<text text-anchor="start" x="320" y="-279.8" font-family="Times,serif" font-size="14.00">updated_at :datetime</text>
</g>
<!-- Task&#45;&gt;Message -->
<g id="edge11" class="edge"><title>Task&#45;&gt;Message</title>
<path fill="none" stroke="#392abe" d="M472.939,-504.18C475.43,-494.674 477.819,-485.187 480,-476 511.569,-343.021 490.764,-302.253 538,-174 541.39,-164.796 545.538,-155.447 550.05,-146.319"/>
<ellipse fill="none" stroke="#392abe" cx="471.848" cy="-508.296" rx="4.00001" ry="4.00001"/>
<polygon fill="#392abe" stroke="#392abe" points="550.119,-146.185 558.675,-139.326 552.393,-141.732 554.668,-137.279 554.668,-137.279 554.668,-137.279 552.393,-141.732 550.66,-135.232 550.119,-146.185 550.119,-146.185"/>
</g>
<!-- Task&#45;&gt;Seller -->
<g id="edge8" class="edge"><title>Task&#45;&gt;Seller</title>
<path fill="none" stroke="#691107" d="M336.889,-514.213C325.191,-501.582 313.657,-488.66 303,-476 302.274,-475.138 301.548,-474.272 300.822,-473.401"/>
<polygon fill="#691107" stroke="#691107" points="336.969,-514.299 340.498,-524.681 340.379,-517.956 343.789,-521.612 343.789,-521.612 343.789,-521.612 340.379,-517.956 347.08,-518.543 336.969,-514.299 336.969,-514.299"/>
<polygon fill="#691107" stroke="#691107" points="300.637,-473.177 297.75,-462.598 297.457,-469.319 294.277,-465.46 294.277,-465.46 294.277,-465.46 297.457,-469.319 290.804,-468.322 300.637,-473.177 300.637,-473.177"/>
</g>
<!-- Task&#45;&gt;Comment -->
<g id="edge9" class="edge"><title>Task&#45;&gt;Comment</title>
<path fill="none" stroke="#4d060a" d="M458.49,-504.381C470.117,-414.371 479.718,-285.295 461,-174 459.499,-165.075 457.321,-155.892 454.768,-146.853"/>
<ellipse fill="none" stroke="#4d060a" cx="457.954" cy="-508.457" rx="4.00001" ry="4.00001"/>
<polygon fill="#4d060a" stroke="#4d060a" points="454.723,-146.702 456.177,-135.833 453.294,-141.911 451.864,-137.119 451.864,-137.119 451.864,-137.119 453.294,-141.911 447.552,-138.405 454.723,-146.702 454.723,-146.702"/>
</g>
<!-- Task&#45;&gt;TaskAttachment -->
<g id="edge12" class="edge"><title>Task&#45;&gt;TaskAttachment</title>
<path fill="none" stroke="#e24821" d="M417.533,-504.278C409.67,-464.829 401.132,-421.99 394.396,-388.194"/>
<ellipse fill="none" stroke="#e24821" cx="418.361" cy="-508.431" rx="4.00001" ry="4.00001"/>
<polygon fill="#e24821" stroke="#e24821" points="394.321,-387.816 396.779,-377.13 393.343,-382.913 392.366,-378.009 392.366,-378.009 392.366,-378.009 393.343,-382.913 387.953,-378.889 394.321,-387.816 394.321,-387.816"/>
</g>
<!-- Feedback -->
<g id="node8" class="node"><title>Feedback</title>
<path fill="none" stroke="black" d="M558.5,-257C558.5,-257 665.5,-257 665.5,-257 671.5,-257 677.5,-263 677.5,-269 677.5,-269 677.5,-381 677.5,-381 677.5,-387 671.5,-393 665.5,-393 665.5,-393 558.5,-393 558.5,-393 552.5,-393 546.5,-387 546.5,-381 546.5,-381 546.5,-269 546.5,-269 546.5,-263 552.5,-257 558.5,-257"/>
<text text-anchor="middle" x="612" y="-377.8" font-family="Times,serif" font-size="14.00">Feedback</text>
<polyline fill="none" stroke="black" points="546.5,-370 677.5,-370 "/>
<text text-anchor="start" x="554.5" y="-354.8" font-family="Times,serif" font-size="14.00">id :integer</text>
<text text-anchor="start" x="554.5" y="-339.8" font-family="Times,serif" font-size="14.00">body :text</text>
<text text-anchor="start" x="554.5" y="-324.8" font-family="Times,serif" font-size="14.00">rating :integer</text>
<text text-anchor="start" x="554.5" y="-309.8" font-family="Times,serif" font-size="14.00">buyer_id :integer</text>
<text text-anchor="start" x="554.5" y="-294.8" font-family="Times,serif" font-size="14.00">task_id :integer</text>
<text text-anchor="start" x="554.5" y="-279.8" font-family="Times,serif" font-size="14.00">created_at :datetime</text>
<text text-anchor="start" x="554.5" y="-264.8" font-family="Times,serif" font-size="14.00">updated_at :datetime</text>
</g>
<!-- Task&#45;&gt;Feedback -->
<g id="edge10" class="edge"><title>Task&#45;&gt;Feedback</title>
<path fill="none" stroke="#b960de" d="M514.13,-505.342C520.285,-495.486 526.318,-485.608 532,-476 545.987,-452.347 560.382,-426.058 573.038,-402.179"/>
<ellipse fill="none" stroke="#b960de" cx="511.98" cy="-508.769" rx="4.00002" ry="4.00002"/>
<polygon fill="#b960de" stroke="#b960de" points="573.132,-402 581.779,-395.256 575.466,-397.578 577.799,-393.156 577.799,-393.156 577.799,-393.156 575.466,-397.578 573.819,-391.056 573.132,-402 573.132,-402"/>
</g>
<!-- Task&#45;&gt;SellersTask -->
<g id="edge7" class="edge"><title>Task&#45;&gt;SellersTask</title>
<path fill="none" stroke="#e1149c" d="M335.777,-605.833C253.154,-590.978 142.37,-556.405 85,-476 12.1642,-373.92 31.2965,-217.913 49.8095,-132.044"/>
<ellipse fill="none" stroke="#e1149c" cx="339.742" cy="-606.523" rx="4.00001" ry="4.00001"/>
<polygon fill="#e1149c" stroke="#e1149c" points="49.8317,-131.944 56.3928,-123.157 50.9158,-127.063 51.9999,-122.182 51.9999,-122.182 51.9999,-122.182 50.9158,-127.063 47.6069,-121.206 49.8317,-131.944 49.8317,-131.944"/>
</g>
<!-- Buyer -->
<g id="node9" class="node"><title>Buyer</title>
<path fill="none" stroke="black" d="M597,-761C597,-761 773,-761 773,-761 779,-761 785,-767 785,-773 785,-773 785,-1005 785,-1005 785,-1011 779,-1017 773,-1017 773,-1017 597,-1017 597,-1017 591,-1017 585,-1011 585,-1005 585,-1005 585,-773 585,-773 585,-767 591,-761 597,-761"/>
<text text-anchor="middle" x="685" y="-1001.8" font-family="Times,serif" font-size="14.00">Buyer</text>
<polyline fill="none" stroke="black" points="585,-994 785,-994 "/>
<text text-anchor="start" x="593" y="-978.8" font-family="Times,serif" font-size="14.00">id :integer</text>
<text text-anchor="start" x="593" y="-963.8" font-family="Times,serif" font-size="14.00">email :string</text>
<text text-anchor="start" x="593" y="-948.8" font-family="Times,serif" font-size="14.00">encrypted_password :string</text>
<text text-anchor="start" x="593" y="-933.8" font-family="Times,serif" font-size="14.00">reset_password_token :string</text>
<text text-anchor="start" x="593" y="-918.8" font-family="Times,serif" font-size="14.00">reset_password_sent_at :datetime</text>
<text text-anchor="start" x="593" y="-903.8" font-family="Times,serif" font-size="14.00">remember_created_at :datetime</text>
<text text-anchor="start" x="593" y="-888.8" font-family="Times,serif" font-size="14.00">sign_in_count :integer</text>
<text text-anchor="start" x="593" y="-873.8" font-family="Times,serif" font-size="14.00">current_sign_in_at :datetime</text>
<text text-anchor="start" x="593" y="-858.8" font-family="Times,serif" font-size="14.00">last_sign_in_at :datetime</text>
<text text-anchor="start" x="593" y="-843.8" font-family="Times,serif" font-size="14.00">current_sign_in_ip :string</text>
<text text-anchor="start" x="593" y="-828.8" font-family="Times,serif" font-size="14.00">last_sign_in_ip :string</text>
<text text-anchor="start" x="593" y="-813.8" font-family="Times,serif" font-size="14.00">name :string</text>
<text text-anchor="start" x="593" y="-798.8" font-family="Times,serif" font-size="14.00">about :text</text>
<text text-anchor="start" x="593" y="-783.8" font-family="Times,serif" font-size="14.00">created_at :datetime</text>
<text text-anchor="start" x="593" y="-768.8" font-family="Times,serif" font-size="14.00">updated_at :datetime</text>
</g>
<!-- Buyer&#45;&gt;Message -->
<g id="edge16" class="edge"><title>Buyer&#45;&gt;Message</title>
<path fill="none" stroke="#3b714d" d="M727.503,-753.021C766.539,-603.892 806.41,-360.221 720,-174 710.711,-153.982 695.462,-136.423 678.808,-121.71"/>
<ellipse fill="none" stroke="#3b714d" cx="726.432" cy="-757.067" rx="4.00001" ry="4.00001"/>
<polygon fill="#3b714d" stroke="#3b714d" points="678.701,-121.619 673.985,-111.719 674.888,-118.385 671.074,-115.151 671.074,-115.151 671.074,-115.151 674.888,-118.385 668.164,-118.583 678.701,-121.619 678.701,-121.619"/>
</g>
<!-- Buyer&#45;&gt;Comment -->
<g id="edge14" class="edge"><title>Buyer&#45;&gt;Comment</title>
<path fill="none" stroke="#7fd7e9" d="M694.218,-752.83C706.142,-558.249 721.462,-217.653 686,-174 636.755,-113.381 585.011,-170.514 514,-138 513.903,-137.956 513.807,-137.911 513.71,-137.867"/>
<ellipse fill="none" stroke="#7fd7e9" cx="693.971" cy="-756.844" rx="4" ry="4"/>
<polygon fill="#7fd7e9" stroke="#7fd7e9" points="513.702,-137.863 506.761,-129.374 509.228,-135.632 504.753,-133.401 504.753,-133.401 504.753,-133.401 509.228,-135.632 502.745,-137.429 513.702,-137.863 513.702,-137.863"/>
</g>
<!-- Buyer&#45;&gt;Task -->
<g id="edge13" class="edge"><title>Buyer&#45;&gt;Task</title>
<path fill="none" stroke="#a02c12" d="M579.594,-772.268C567.184,-758.643 554.535,-744.755 542.171,-731.18"/>
<ellipse fill="none" stroke="#a02c12" cx="582.302" cy="-775.242" rx="4.00002" ry="4.00002"/>
<polygon fill="#a02c12" stroke="#a02c12" points="542.068,-731.067 538.661,-720.643 538.701,-727.37 535.334,-723.673 535.334,-723.673 535.334,-723.673 538.701,-727.37 532.008,-726.703 542.068,-731.067 542.068,-731.067"/>
</g>
<!-- Buyer&#45;&gt;Feedback -->
<g id="edge15" class="edge"><title>Buyer&#45;&gt;Feedback</title>
<path fill="none" stroke="#696762" d="M667.428,-752.72C653.215,-643.298 633.708,-493.118 622.027,-403.195"/>
<ellipse fill="none" stroke="#696762" cx="667.965" cy="-756.858" rx="4.00001" ry="4.00001"/>
<polygon fill="#696762" stroke="#696762" points="622.001,-402.99 625.175,-392.493 621.356,-398.031 620.712,-393.073 620.712,-393.073 620.712,-393.073 621.356,-398.031 616.25,-393.653 622.001,-402.99 622.001,-402.99"/>
</g>
<!-- AdminUser -->
<g id="node10" class="node"><title>AdminUser</title>
<path fill="none" stroke="black" d="M815,-776C815,-776 991,-776 991,-776 997,-776 1003,-782 1003,-788 1003,-788 1003,-990 1003,-990 1003,-996 997,-1002 991,-1002 991,-1002 815,-1002 815,-1002 809,-1002 803,-996 803,-990 803,-990 803,-788 803,-788 803,-782 809,-776 815,-776"/>
<text text-anchor="middle" x="903" y="-986.8" font-family="Times,serif" font-size="14.00">AdminUser</text>
<polyline fill="none" stroke="black" points="803,-979 1003,-979 "/>
<text text-anchor="start" x="811" y="-963.8" font-family="Times,serif" font-size="14.00">id :integer</text>
<text text-anchor="start" x="811" y="-948.8" font-family="Times,serif" font-size="14.00">email :string</text>
<text text-anchor="start" x="811" y="-933.8" font-family="Times,serif" font-size="14.00">encrypted_password :string</text>
<text text-anchor="start" x="811" y="-918.8" font-family="Times,serif" font-size="14.00">reset_password_token :string</text>
<text text-anchor="start" x="811" y="-903.8" font-family="Times,serif" font-size="14.00">reset_password_sent_at :datetime</text>
<text text-anchor="start" x="811" y="-888.8" font-family="Times,serif" font-size="14.00">remember_created_at :datetime</text>
<text text-anchor="start" x="811" y="-873.8" font-family="Times,serif" font-size="14.00">sign_in_count :integer</text>
<text text-anchor="start" x="811" y="-858.8" font-family="Times,serif" font-size="14.00">current_sign_in_at :datetime</text>
<text text-anchor="start" x="811" y="-843.8" font-family="Times,serif" font-size="14.00">last_sign_in_at :datetime</text>
<text text-anchor="start" x="811" y="-828.8" font-family="Times,serif" font-size="14.00">current_sign_in_ip :string</text>
<text text-anchor="start" x="811" y="-813.8" font-family="Times,serif" font-size="14.00">last_sign_in_ip :string</text>
<text text-anchor="start" x="811" y="-798.8" font-family="Times,serif" font-size="14.00">created_at :datetime</text>
<text text-anchor="start" x="811" y="-783.8" font-family="Times,serif" font-size="14.00">updated_at :datetime</text>
</g>
</g>
</svg>
